<svg xmlns="http://www.w3.org/2000/svg" viewBox="0 0 256 224" stroke-linecap="round" stroke-linejoin="round" ><g id="furniture" data-footprint="1x1" data-anchor="128,164" data-rotation="270" data-mount="floor" data-layer="object" data-interaction="look"><g id="ground-shadow"><polygon points="108.6,166 131,154.8 153.4,166 131,177.2" fill="#756655" stroke="none" stroke-width="0" opacity="0.15"/></g><polygon points="142.72,164 128,171.36 128,140.36 142.72,133" fill="#CCB998" stroke="#443C4E" stroke-width="2.4"/><polygon points="128,171.36 113.28,164 113.28,133 128,140.36" fill="#E8D7BA" stroke="#443C4E" stroke-width="2.4"/><path d="M 128 135 L 143.36 98.12" fill="none" stroke="#9F8474" stroke-width="2.8"/><path d="M 128 135 L 114.24 90.68" fill="none" stroke="#9F8474" stroke-width="2.8"/><ellipse cx="138.88" cy="117.3" rx="2.59" ry="2.59" fill="#E5B8C0" stroke="#443C4E" stroke-width="1.6"/><ellipse cx="136.46" cy="120.64" rx="2.59" ry="2.59" fill="#E5B8C0" stroke="#443C4E" stroke-width="1.6"/><ellipse cx="132.53" cy="119.36" rx="2.59" ry="2.59" fill="#E5B8C0" stroke="#443C4E" stroke-width="1.6"/><ellipse cx="132.53" cy="115.23" rx="2.59" ry="2.59" fill="#E5B8C0" stroke="#443C4E" stroke-width="1.6"/><ellipse cx="136.46" cy="113.96" rx="2.59" ry="2.59" fill="#E5B8C0" stroke="#443C4E" stroke-width="1.6"/><ellipse cx="135.37" cy="117.3" rx="1.89" ry="1.89" fill="#EAC56E" stroke="#443C4E" stroke-width="1.4"/><ellipse cx="142.57" cy="108.45" rx="2.59" ry="2.59" fill="#E5B8C0" stroke="#443C4E" stroke-width="1.6"/><ellipse cx="140.14" cy="111.78" rx="2.59" ry="2.59" fill="#E5B8C0" stroke="#443C4E" stroke-width="1.6"/><ellipse cx="136.22" cy="110.51" rx="2.59" ry="2.59" fill="#E5B8C0" stroke="#443C4E" stroke-width="1.6"/><ellipse cx="136.22" cy="106.38" rx="2.59" ry="2.59" fill="#E5B8C0" stroke="#443C4E" stroke-width="1.6"/><ellipse cx="140.14" cy="105.11" rx="2.59" ry="2.59" fill="#E5B8C0" stroke="#443C4E" stroke-width="1.6"/><ellipse cx="139.06" cy="108.45" rx="1.89" ry="1.89" fill="#EAC56E" stroke="#443C4E" stroke-width="1.4"/><ellipse cx="146.87" cy="98.12" rx="2.59" ry="2.59" fill="#E5B8C0" stroke="#443C4E" stroke-width="1.6"/><ellipse cx="144.44" cy="101.46" rx="2.59" ry="2.59" fill="#E5B8C0" stroke="#443C4E" stroke-width="1.6"/><ellipse cx="140.52" cy="100.18" rx="2.59" ry="2.59" fill="#E5B8C0" stroke="#443C4E" stroke-width="1.6"/><ellipse cx="140.52" cy="96.06" rx="2.59" ry="2.59" fill="#E5B8C0" stroke="#443C4E" stroke-width="1.6"/><ellipse cx="144.44" cy="94.78" rx="2.59" ry="2.59" fill="#E5B8C0" stroke="#443C4E" stroke-width="1.6"/><ellipse cx="143.36" cy="98.12" rx="1.89" ry="1.89" fill="#EAC56E" stroke="#443C4E" stroke-width="1.4"/><path d="M 128 135 L 133.12 66.44" fill="none" stroke="#9F8474" stroke-width="2.8"/><polygon points="113.28,133 128,125.64 142.72,133 128,140.36" fill="#FAEED8" stroke="#443C4E" stroke-width="2.4"/><ellipse cx="124.91" cy="113.73" rx="2.59" ry="2.59" fill="#E5B8C0" stroke="#443C4E" stroke-width="1.6"/><ellipse cx="122.48" cy="117.06" rx="2.59" ry="2.59" fill="#E5B8C0" stroke="#443C4E" stroke-width="1.6"/><ellipse cx="118.56" cy="115.79" rx="2.59" ry="2.59" fill="#E5B8C0" stroke="#443C4E" stroke-width="1.6"/><ellipse cx="118.56" cy="111.66" rx="2.59" ry="2.59" fill="#E5B8C0" stroke="#443C4E" stroke-width="1.6"/><ellipse cx="122.48" cy="110.39" rx="2.59" ry="2.59" fill="#E5B8C0" stroke="#443C4E" stroke-width="1.6"/><ellipse cx="121.4" cy="113.73" rx="1.89" ry="1.89" fill="#EAC56E" stroke="#443C4E" stroke-width="1.4"/><ellipse cx="121.6" cy="103.09" rx="2.59" ry="2.59" fill="#E5B8C0" stroke="#443C4E" stroke-width="1.6"/><ellipse cx="119.18" cy="106.43" rx="2.59" ry="2.59" fill="#E5B8C0" stroke="#443C4E" stroke-width="1.6"/><ellipse cx="115.25" cy="105.15" rx="2.59" ry="2.59" fill="#E5B8C0" stroke="#443C4E" stroke-width="1.6"/><ellipse cx="115.25" cy="101.03" rx="2.59" ry="2.59" fill="#E5B8C0" stroke="#443C4E" stroke-width="1.6"/><ellipse cx="119.18" cy="99.75" rx="2.59" ry="2.59" fill="#E5B8C0" stroke="#443C4E" stroke-width="1.6"/><ellipse cx="118.09" cy="103.09" rx="1.89" ry="1.89" fill="#EAC56E" stroke="#443C4E" stroke-width="1.4"/><ellipse cx="117.75" cy="90.68" rx="2.59" ry="2.59" fill="#E5B8C0" stroke="#443C4E" stroke-width="1.6"/><ellipse cx="115.32" cy="94.02" rx="2.59" ry="2.59" fill="#E5B8C0" stroke="#443C4E" stroke-width="1.6"/><ellipse cx="111.4" cy="92.74" rx="2.59" ry="2.59" fill="#E5B8C0" stroke="#443C4E" stroke-width="1.6"/><ellipse cx="111.4" cy="88.62" rx="2.59" ry="2.59" fill="#E5B8C0" stroke="#443C4E" stroke-width="1.6"/><ellipse cx="115.32" cy="87.34" rx="2.59" ry="2.59" fill="#E5B8C0" stroke="#443C4E" stroke-width="1.6"/><ellipse cx="114.24" cy="90.68" rx="1.89" ry="1.89" fill="#EAC56E" stroke="#443C4E" stroke-width="1.4"/><ellipse cx="133.97" cy="102.09" rx="2.59" ry="2.59" fill="#E5B8C0" stroke="#443C4E" stroke-width="1.6"/><ellipse cx="131.54" cy="105.43" rx="2.59" ry="2.59" fill="#E5B8C0" stroke="#443C4E" stroke-width="1.6"/><ellipse cx="127.62" cy="104.15" rx="2.59" ry="2.59" fill="#E5B8C0" stroke="#443C4E" stroke-width="1.6"/><ellipse cx="127.62" cy="100.03" rx="2.59" ry="2.59" fill="#E5B8C0" stroke="#443C4E" stroke-width="1.6"/><ellipse cx="131.54" cy="98.75" rx="2.59" ry="2.59" fill="#E5B8C0" stroke="#443C4E" stroke-width="1.6"/><ellipse cx="130.46" cy="102.09" rx="1.89" ry="1.89" fill="#EAC56E" stroke="#443C4E" stroke-width="1.4"/><ellipse cx="135.2" cy="85.64" rx="2.59" ry="2.59" fill="#E5B8C0" stroke="#443C4E" stroke-width="1.6"/><ellipse cx="132.77" cy="88.98" rx="2.59" ry="2.59" fill="#E5B8C0" stroke="#443C4E" stroke-width="1.6"/><ellipse cx="128.85" cy="87.7" rx="2.59" ry="2.59" fill="#E5B8C0" stroke="#443C4E" stroke-width="1.6"/><ellipse cx="128.85" cy="83.57" rx="2.59" ry="2.59" fill="#E5B8C0" stroke="#443C4E" stroke-width="1.6"/><ellipse cx="132.77" cy="82.3" rx="2.59" ry="2.59" fill="#E5B8C0" stroke="#443C4E" stroke-width="1.6"/><ellipse cx="131.69" cy="85.64" rx="1.89" ry="1.89" fill="#EAC56E" stroke="#443C4E" stroke-width="1.4"/><ellipse cx="136.63" cy="66.44" rx="2.59" ry="2.59" fill="#E5B8C0" stroke="#443C4E" stroke-width="1.6"/><ellipse cx="134.2" cy="69.78" rx="2.59" ry="2.59" fill="#E5B8C0" stroke="#443C4E" stroke-width="1.6"/><ellipse cx="130.28" cy="68.5" rx="2.59" ry="2.59" fill="#E5B8C0" stroke="#443C4E" stroke-width="1.6"/><ellipse cx="130.28" cy="64.38" rx="2.59" ry="2.59" fill="#E5B8C0" stroke="#443C4E" stroke-width="1.6"/><ellipse cx="134.2" cy="63.1" rx="2.59" ry="2.59" fill="#E5B8C0" stroke="#443C4E" stroke-width="1.6"/><ellipse cx="133.12" cy="66.44" rx="1.89" ry="1.89" fill="#EAC56E" stroke="#443C4E" stroke-width="1.4"/></g></svg>