<svg xmlns="http://www.w3.org/2000/svg" viewBox="0 0 256 224" stroke-linecap="round" stroke-linejoin="round" ><g id="furniture" data-footprint="2x2" data-anchor="128,164" data-rotation="180" data-mount="floor" data-layer="object" data-interaction="sleep"><g id="ground-shadow"><polygon points="131,193.2 76.6,166 131,138.8 185.4,166" fill="#756655" stroke="none" stroke-width="0" opacity="0.15"/></g><polygon points="126.72,176.2 73.6,149.64 125.44,123.72 178.56,150.28" fill="#E6CDAA" stroke="#443C4E" stroke-width="2.4"/><polygon points="77.76,124.16 77.76,149.16 125.12,125.48 125.12,100.48" fill="#F0DDC4" stroke="#443C4E" stroke-width="1.8"/><polygon points="89.28,104.92 77.76,124.16 125.12,100.48 136.64,81.24" fill="#E6CFB4" stroke="#443C4E" stroke-width="1.8"/><polygon points="126.72,188.2 73.6,161.64 73.6,149.64 126.72,176.2" fill="#CEAD86" stroke="#443C4E" stroke-width="2.4"/><polygon points="178.56,162.28 126.72,188.2 126.72,176.2 178.56,150.28" fill="#AF8D6E" stroke="#443C4E" stroke-width="2.4"/><polygon points="127.68,174.12 127.68,149.12 175.04,125.44 175.04,150.44" fill="#D8BC9E" stroke="#443C4E" stroke-width="1.8"/><polygon points="102.72,102.64 89.28,104.92 136.64,81.24 150.08,78.96" fill="#D8BC9E" stroke="#443C4E" stroke-width="1.8"/><polygon points="127.68,149.12 116.16,118.36 163.52,94.68 175.04,125.44" fill="#E6CFB4" stroke="#443C4E" stroke-width="1.8"/><polygon points="116.16,118.36 102.72,102.64 150.08,78.96 163.52,94.68" fill="#F0DDC4" stroke="#443C4E" stroke-width="1.8"/></g></svg>