<svg xmlns="http://www.w3.org/2000/svg" viewBox="0 0 256 224" stroke-linecap="round" stroke-linejoin="round" ><g id="furniture" data-footprint="1x1" data-anchor="128,164" data-rotation="0" data-mount="floor" data-layer="object" data-interaction="look"><g id="ground-shadow"><polygon points="131,154.8 153.4,166 131,177.2 108.6,166" fill="#756655" stroke="none" stroke-width="0" opacity="0.15"/></g><polygon points="126.72,173.24 105.6,162.68 105.6,157.68 126.72,168.24" fill="#CEAD86" stroke="#443C4E" stroke-width="2.4"/><polygon points="134.4,166.04 112.32,155 112.32,112 134.4,123.04" fill="#CEAD86" stroke="#443C4E" stroke-width="2.4"/><polygon points="112.64,154.16 133.76,164.72 126.72,168.24 105.6,157.68" fill="#E6CDAA" stroke="#443C4E" stroke-width="2.4"/><polygon points="133.76,169.72 126.72,173.24 126.72,168.24 133.76,164.72" fill="#AF8D6E" stroke="#443C4E" stroke-width="2.4"/><polygon points="136.64,164.92 134.4,166.04 134.4,123.04 136.64,121.92" fill="#AF8D6E" stroke="#443C4E" stroke-width="2.4"/><polygon points="114.56,110.88 136.64,121.92 134.4,123.04 112.32,112" fill="#E6CDAA" stroke="#443C4E" stroke-width="2.4"/><polygon points="114.24,149.92 130.56,158.08 130.56,128.08 114.24,119.92" fill="#FFF0D5" stroke="#443C4E" stroke-width="1.5"/><polygon points="114.56,148.4 120.32,137.28 125.12,147.68 129.6,155.92" fill="#9DBFB3" stroke="#443C4E" stroke-width="1.3"/><ellipse cx="125.44" cy="134.16" rx="3" ry="3" fill="#EAC56E" stroke="#443C4E" stroke-width="1"/></g></svg>