<svg xmlns="http://www.w3.org/2000/svg" viewBox="0 0 256 224" stroke-linecap="round" stroke-linejoin="round" ><g id="furniture" data-footprint="1x1" data-anchor="128,164" data-rotation="0" data-mount="floor" data-layer="object" data-interaction="inspect"><g id="ground-shadow"><polygon points="131,154.8 153.4,166 131,177.2 108.6,166" fill="#756655" stroke="none" stroke-width="0" opacity="0.15"/></g><polygon points="128.64,175.76 100.48,161.68 100.48,62.68 128.64,76.76" fill="#9DBFB3" stroke="#443C4E" stroke-width="2.4"/><polygon points="155.52,162.32 128.64,175.76 128.64,76.76 155.52,63.32" fill="#7A9F95" stroke="#443C4E" stroke-width="2.4"/><polygon points="127.36,49.24 155.52,63.32 128.64,76.76 100.48,62.68" fill="#C4DDD1" stroke="#443C4E" stroke-width="2.4"/><polygon points="102.72,152.12 125.76,163.64 125.76,104.64 102.72,93.12" fill="#BFD8CC" stroke="#443C4E" stroke-width="1.6"/><polygon points="102.72,91.12 125.76,102.64 125.76,82.64 102.72,71.12" fill="#CBE0D1" stroke="#443C4E" stroke-width="1.6"/><path d="M 104.32 100.88 L 104.32 112.88" fill="none" stroke="#6E8C82" stroke-width="3"/><path d="M 104.64 80.04 L 104.64 88.04" fill="none" stroke="#6E8C82" stroke-width="2.5"/><polygon points="112,127.04 119.36,130.72 119.36,113.72 112,110.04" fill="#FFF0D5" stroke="#443C4E" stroke-width="1.2"/><polygon points="110.4,112.56 113.6,114.16 113.6,111.16 110.4,109.56" fill="#E7A9B4" stroke="#443C4E" stroke-width="0.7"/><path d="M 112.96 116.84 L 117.44 119.08" fill="none" stroke="#B0A495" stroke-width="1"/></g></svg>