<svg xmlns="http://www.w3.org/2000/svg" viewBox="0 0 256 224" stroke-linecap="round" stroke-linejoin="round" ><g id="furniture" data-footprint="1x1" data-anchor="128,164" data-rotation="0" data-mount="wall" data-layer="wall" data-interaction="look"><polygon points="138.14,96.99 137.91,94.21 137.2,91.3 136.06,88.38 134.52,85.54 132.64,82.91 130.5,80.58 128.18,78.64 125.76,77.17 123.34,76.22 121.02,75.84 118.88,76.03 117,76.78 115.46,78.08 114.32,79.86 113.61,82.07 113.38,84.61 113.61,87.39 114.32,90.3 115.46,93.22 117,96.06 118.88,98.69 121.02,101.02 123.34,102.96 125.76,104.43 128.18,105.38 130.5,105.76 132.64,105.57 134.52,104.82 136.06,103.52 137.2,101.74 137.91,99.53" fill="#E6CDAA" stroke="#443C4E" stroke-width="2.4"/><polygon points="135.94,95.89 135.75,93.64 135.17,91.28 134.23,88.9 132.96,86.59 131.42,84.44 129.66,82.54 127.75,80.96 125.76,79.75 123.77,78.97 121.86,78.65 120.1,78.79 118.56,79.39 117.29,80.43 116.35,81.87 115.77,83.65 115.58,85.71 115.77,87.96 116.35,90.32 117.29,92.7 118.56,95.01 120.1,97.16 121.86,99.06 123.77,100.64 125.76,101.84 127.75,102.63 129.66,102.95 131.42,102.81 132.96,102.21 134.23,101.17 135.17,99.73 135.75,97.95" fill="#FFF0D5" stroke="#443C4E" stroke-width="1.4"/><path d="M 134.57 95.2 L 133.74 94.79" fill="none" stroke="#A79984" stroke-width="1.4"/><path d="M 133.39 89.87 L 132.67 89.93" fill="none" stroke="#A79984" stroke-width="1.4"/><path d="M 130.16 84.78 L 129.75 85.31" fill="none" stroke="#A79984" stroke-width="1.4"/><path d="M 125.76 81.31 L 125.76 82.15" fill="none" stroke="#A79984" stroke-width="1.4"/><path d="M 121.36 80.38 L 121.77 81.32" fill="none" stroke="#A79984" stroke-width="1.4"/><path d="M 118.13 82.24 L 118.85 83.02" fill="none" stroke="#A79984" stroke-width="1.4"/><path d="M 116.95 86.4 L 117.78 86.81" fill="none" stroke="#A79984" stroke-width="1.4"/><path d="M 118.13 91.73 L 118.85 91.67" fill="none" stroke="#A79984" stroke-width="1.4"/><path d="M 121.36 96.82 L 121.77 96.29" fill="none" stroke="#A79984" stroke-width="1.4"/><path d="M 125.76 100.29 L 125.76 99.45" fill="none" stroke="#A79984" stroke-width="1.4"/><path d="M 130.16 101.22 L 129.75 100.28" fill="none" stroke="#A79984" stroke-width="1.4"/><path d="M 133.39 99.36 L 132.67 98.58" fill="none" stroke="#A79984" stroke-width="1.4"/><path d="M 125.76 82.81 L 125.76 90.8 L 130.71 93.28" fill="none" stroke="#443C4E" stroke-width="2.3"/><polygon points="126.45,91.14 126.43,90.95 126.4,90.76 126.33,90.56 126.25,90.38 126.14,90.21 126.02,90.06 125.89,89.95 125.76,89.86 125.63,89.81 125.5,89.8 125.38,89.83 125.27,89.89 125.19,89.99 125.12,90.12 125.09,90.28 125.07,90.46 125.09,90.65 125.12,90.84 125.19,91.04 125.27,91.22 125.38,91.39 125.5,91.54 125.63,91.65 125.76,91.74 125.89,91.79 126.02,91.8 126.14,91.77 126.25,91.71 126.33,91.61 126.4,91.48 126.43,91.32" fill="#EAC56E" stroke="#443C4E" stroke-width="1"/></g></svg>